Normalized EMG Linear Envelopes
nRows=261
nColumns=4

endheader
time	 med_gas_r	  soleus_r	 tib_ant_r	
2.79418	  0.086010	  0.103560	  0.028989	
2.82744	  0.087001	  0.099755	  0.028891	
2.8607	  0.087997	  0.097011	  0.028831	
2.89397	  0.089390	  0.096045	  0.028842	
2.92723	  0.091235	  0.096923	  0.028933	
2.9605	  0.093117	  0.099144	  0.029089	
2.99376	  0.094383	  0.101967	  0.029289	
3.02702	  0.094712	  0.104774	  0.029514	
3.06029	  0.094531	  0.107226	  0.029755	
3.09355	  0.094780	  0.109163	  0.029987	
3.12682	  0.096162	  0.110420	  0.030171	
3.16008	  0.098544	  0.110764	  0.030273	
3.19334	  0.101070	  0.110034	  0.030298	
3.22661	  0.102882	  0.108333	  0.030278	
3.25987	  0.103754	  0.106075	  0.030246	
3.29314	  0.104102	  0.103814	  0.030202	
3.3264	  0.104462	  0.102008	  0.030119	
3.35966	  0.105034	  0.100873	  0.029959	
3.39293	  0.105694	  0.100394	  0.029705	
3.42619	  0.106300	  0.100431	  0.029378	
3.45946	  0.106845	  0.100849	  0.029031	
3.49272	  0.107330	  0.101621	  0.028739	
3.52598	  0.107645	  0.102830	  0.028569	
3.55925	  0.107746	  0.104520	  0.028556	
3.59251	  0.107931	  0.106494	  0.028694	
3.62578	  0.108772	  0.108253	  0.028928	
3.65904	  0.110601	  0.109200	  0.029174	
3.6923	  0.113060	  0.109012	  0.029358	
3.72557	  0.115255	  0.107894	  0.029465	
3.75883	  0.116442	  0.106496	  0.029541	
3.7921	  0.116551	  0.105536	  0.029655	
3.82536	  0.116016	  0.105384	  0.029838	
3.85862	  0.115154	  0.105917	  0.030063	
3.89189	  0.113840	  0.106688	  0.030286	
3.92515	  0.111822	  0.107224	  0.030500	
3.95842	  0.109255	  0.107231	  0.030744	
3.99168	  0.106820	  0.106629	  0.031065	
4.02494	  0.105299	  0.105546	  0.031459	
4.05821	  0.105104	  0.104308	  0.031839	
4.09147	  0.106190	  0.103436	  0.032072	
4.12474	  0.108275	  0.103535	  0.032030	
4.158	  0.110996	  0.105069	  0.031651	
4.19126	  0.113908	  0.108096	  0.030940	
4.22453	  0.116515	  0.112153	  0.029956	
4.25779	  0.118481	  0.116407	  0.028802	
4.29106	  0.119846	  0.120032	  0.027657	
4.32432	  0.121029	  0.122539	  0.026831	
4.35758	  0.122588	  0.123837	  0.026783	
4.39085	  0.124929	  0.124063	  0.028092	
4.42411	  0.128087	  0.123419	  0.031405	
4.45738	  0.131664	  0.122157	  0.037419	
4.49064	  0.134969	  0.120631	  0.046826	
4.5239	  0.137378	  0.119282	  0.060106	
4.55717	  0.138698	  0.118492	  0.077085	
4.59043	  0.139292	  0.118410	  0.096482	
4.6237	  0.139851	  0.118849	  0.115928	
4.65696	  0.140945	  0.119349	  0.132731	
4.69022	  0.142605	  0.119367	  0.145067	
4.72349	  0.144219	  0.118497	  0.152803	
4.75675	  0.144898	  0.116602	  0.157370	
4.79002	  0.144079	  0.113838	  0.160784	
4.82328	  0.141941	  0.110592	  0.164549	
4.85654	  0.139294	  0.107382	  0.169163	
4.88981	  0.137080	  0.104703	  0.174474	
4.92307	  0.135878	  0.102835	  0.180445	
4.95634	  0.135750	  0.101737	  0.187553	
4.9896	  0.136428	  0.101124	  0.196454	
5.02286	  0.137559	  0.100727	  0.207241	
5.05613	  0.138759	  0.100492	  0.219062	
5.08939	  0.139563	  0.100554	  0.230495	
5.12266	  0.139471	  0.101031	  0.240367	
5.15592	  0.138183	  0.101871	  0.248320	
5.18918	  0.135823	  0.102909	  0.254704	
5.22245	  0.132945	  0.104048	  0.260043	
5.25571	  0.130294	  0.105355	  0.264619	
5.28898	  0.128462	  0.107019	  0.268445	
5.32224	  0.127664	  0.109213	  0.271483	
5.3555	  0.127788	  0.111970	  0.273781	
5.38877	  0.128600	  0.115115	  0.275461	
5.42203	  0.129907	  0.118269	  0.276589	
5.4553	  0.131553	  0.120942	  0.277061	
5.48856	  0.133370	  0.122724	  0.276643	
5.52182	  0.135230	  0.123481	  0.275266	
5.55509	  0.137221	  0.123431	  0.273433	
5.58835	  0.139753	  0.123017	  0.272360	
5.62162	  0.143367	  0.122631	  0.273601	
5.65488	  0.148243	  0.122416	  0.278293	
5.68814	  0.153849	  0.122270	  0.286516	
5.72141	  0.159220	  0.122056	  0.297206	
5.75467	  0.163814	  0.121761	  0.308648	
5.78794	  0.168150	  0.121472	  0.319179	
5.8212	  0.173472	  0.121173	  0.327675	
5.85446	  0.180554	  0.120590	  0.333674	
5.88773	  0.188686	  0.119251	  0.337225	
5.92099	  0.195823	  0.116760	  0.338686	
5.95426	  0.199925	  0.113104	  0.338640	
5.98752	  0.200453	  0.108774	  0.337899	
6.02078	  0.198759	  0.104631	  0.337419	
6.05405	  0.197035	  0.101592	  0.338009	
6.08731	  0.196717	  0.100305	  0.339909	
6.12058	  0.197666	  0.100943	  0.342521	
6.15384	  0.198719	  0.103206	  0.344523	
6.1871	  0.199099	  0.106496	  0.344499	
6.22037	  0.199426	  0.110165	  0.341964	
6.25363	  0.201402	  0.113709	  0.338209	
6.2869	  0.206345	  0.116871	  0.336096	
6.32016	  0.213917	  0.119665	  0.338571	
6.35342	  0.222316	  0.122333	  0.346890	
6.38669	  0.229795	  0.125207	  0.360046	
6.41995	  0.235950	  0.128474	  0.375787	
6.45322	  0.241519	  0.132024	  0.392049	
6.48648	  0.247051	  0.135471	  0.407530	
6.51974	  0.252044	  0.138363	  0.421380	
6.55301	  0.255456	  0.140417	  0.432935	
6.58627	  0.256849	  0.141649	  0.441963	
6.61954	  0.256735	  0.142304	  0.448943	
6.6528	  0.255735	  0.142651	  0.454807	
6.68606	  0.253644	  0.142780	  0.460305	
6.71933	  0.249648	  0.142558	  0.465574	
6.75259	  0.243490	  0.141749	  0.470108	
6.78586	  0.236168	  0.140181	  0.472860	
6.81912	  0.229325	  0.137860	  0.472407	
6.85238	  0.224054	  0.134998	  0.467476	
6.88565	  0.220478	  0.131937	  0.457883	
6.91891	  0.218376	  0.128990	  0.445249	
6.95218	  0.217837	  0.126270	  0.432804	
6.98544	  0.219147	  0.123672	  0.424273	
7.0187	  0.222266	  0.121044	  0.422582	
7.05197	  0.226635	  0.118377	  0.429023	
7.08523	  0.231448	  0.115852	  0.443009	
7.1185	  0.236028	  0.113752	  0.462205	
7.15176	  0.240098	  0.112403	  0.482918	
7.18502	  0.243895	  0.112123	  0.500889	
7.21829	  0.247914	  0.113096	  0.512581	
7.25155	  0.252274	  0.115139	  0.516564	
7.28482	  0.256284	  0.117602	  0.514191	
7.31808	  0.258762	  0.119585	  0.508932	
7.35134	  0.258854	  0.120374	  0.504638	
7.38461	  0.256551	  0.119774	  0.503774	
7.41787	  0.252543	  0.118098	  0.506609	
7.45114	  0.247767	  0.115922	  0.511641	
7.4844	  0.243058	  0.113825	  0.516797	
7.51766	  0.238961	  0.112245	  0.520648	
7.55093	  0.235719	  0.111444	  0.522988	
7.58419	  0.233564	  0.111560	  0.524591	
7.61746	  0.233085	  0.112694	  0.526480	
7.65072	  0.235140	  0.114908	  0.529348	
7.68398	  0.240137	  0.118056	  0.533447	
7.71725	  0.247288	  0.121607	  0.538734	
7.75051	  0.254658	  0.124765	  0.544887	
7.78378	  0.260026	  0.126927	  0.551213	
7.81704	  0.261855	  0.128143	  0.556837	
7.8503	  0.259775	  0.129132	  0.561175	
7.88357	  0.254563	  0.130819	  0.564263	
7.91683	  0.247826	  0.133740	  0.566564	
7.9501	  0.241380	  0.137747	  0.568543	
7.98336	  0.236456	  0.142138	  0.570586	
8.01662	  0.233231	  0.146054	  0.573395	
8.04989	  0.231081	  0.148849	  0.578222	
8.08315	  0.229233	  0.150224	  0.586399	
8.11642	  0.227138	  0.150134	  0.598389	
8.14968	  0.224502	  0.148670	  0.613184	
8.18294	  0.221377	  0.146086	  0.628514	
8.21621	  0.218458	  0.142916	  0.641541	
8.24947	  0.217082	  0.139943	  0.649493	
8.28274	  0.218608	  0.137932	  0.650246	
8.316	  0.223531	  0.137313	  0.643116	
8.34926	  0.231017	  0.138080	  0.629591	
8.38253	  0.239250	  0.139945	  0.613203	
8.41579	  0.246425	  0.142603	  0.598144	
8.44906	  0.251747	  0.145886	  0.587326	
8.48232	  0.255603	  0.149741	  0.581146	
8.51558	  0.258708	  0.154058	  0.577635	
8.54885	  0.261113	  0.158495	  0.573816	
8.58211	  0.262206	  0.162459	  0.567508	
8.61538	  0.261637	  0.165283	  0.558723	
8.64864	  0.259957	  0.166505	  0.549966	
8.6819	  0.258234	  0.165988	  0.545232	
8.71517	  0.257220	  0.163815	  0.548097	
8.74843	  0.257037	  0.160107	  0.559777	
8.7817	  0.257471	  0.155061	  0.578187	
8.81496	  0.258294	  0.149183	  0.598593	
8.84822	  0.259401	  0.143376	  0.615743	
8.88149	  0.260934	  0.138641	  0.626413	
8.91475	  0.263354	  0.135568	  0.630919	
8.94802	  0.267104	  0.134101	  0.632652	
8.98128	  0.272007	  0.133836	  0.635937	
9.01454	  0.277078	  0.134510	  0.643645	
9.04781	  0.281075	  0.136143	  0.656009	
9.08107	  0.283164	  0.138704	  0.671018	
9.11434	  0.283052	  0.141732	  0.685589	
9.1476	  0.280754	  0.144431	  0.696570	
9.18086	  0.276590	  0.146182	  0.701473	
9.21413	  0.271305	  0.146950	  0.699247	
9.24739	  0.265795	  0.147245	  0.690944	
9.28066	  0.260518	  0.147770	  0.679562	
9.31392	  0.255315	  0.149143	  0.668834	
9.34718	  0.249853	  0.151789	  0.661741	
9.38045	  0.244068	  0.155816	  0.659814	
9.41371	  0.238076	  0.160829	  0.663339	
9.44698	  0.231872	  0.165897	  0.671717	
9.48024	  0.225337	  0.169898	  0.683485	
9.5135	  0.218521	  0.172029	  0.696429	
9.54677	  0.211903	  0.172108	  0.708340	
9.58003	  0.206468	  0.170476	  0.718009	
9.6133	  0.203531	  0.167699	  0.725425	
9.64656	  0.204194	  0.164353	  0.730937	
9.67982	  0.208676	  0.160981	  0.734578	
9.71309	  0.216070	  0.158098	  0.736646	
9.74635	  0.224769	  0.156149	  0.738880	
9.77962	  0.233165	  0.155482	  0.744365	
9.81288	  0.240153	  0.156402	  0.755459	
9.84614	  0.245409	  0.159286	  0.771498	
9.87941	  0.249497	  0.164520	  0.788776	
9.91267	  0.253647	  0.172133	  0.803036	
9.94594	  0.259252	  0.181317	  0.812038	
9.9792	  0.267539	  0.190351	  0.815855	
10.0125	  0.279743	  0.197248	  0.815225	
10.0457	  0.297319	  0.200787	  0.810254	
10.079	  0.321370	  0.201116	  0.800867	
10.1123	  0.351199	  0.199375	  0.788076	
10.1455	  0.383128	  0.196652	  0.774111	
10.1788	  0.411315	  0.193186	  0.760874	
10.212	  0.431035	  0.188440	  0.748260	
10.2453	  0.442272	  0.181866	  0.734266	
10.2786	  0.450099	  0.173604	  0.716870	
10.3118	  0.460534	  0.164555	  0.695755	
10.3451	  0.474789	  0.155897	  0.672201	
10.3784	  0.486853	  0.148581	  0.647526	
10.4116	  0.486817	  0.143141	  0.621848	
10.4449	  0.467615	  0.139801	  0.594328	
10.4782	  0.430038	  0.138617	  0.564470	
10.5114	  0.382373	  0.139546	  0.533131	
10.5447	  0.335346	  0.142478	  0.502402	
10.578	  0.296564	  0.147223	  0.474588	
10.6112	  0.268364	  0.153400	  0.451147	
10.6445	  0.249519	  0.160326	  0.432159	
10.6777	  0.238136	  0.167102	  0.416316	
10.711	  0.233065	  0.172944	  0.401356	
10.7443	  0.233499	  0.177494	  0.385032	
10.7775	  0.238252	  0.180788	  0.366415	
10.8108	  0.245757	  0.182934	  0.346585	
10.8441	  0.254482	  0.183829	  0.327924	
10.8773	  0.263137	  0.183148	  0.312407	
10.9106	  0.270662	  0.180536	  0.300399	
10.9439	  0.276277	  0.175813	  0.290886	
10.9771	  0.279491	  0.169142	  0.282551	
11.0104	  0.279993	  0.161126	  0.274461	
11.0436	  0.277738	  0.152766	  0.266065	
11.0769	  0.273344	  0.145228	  0.257176	
11.1102	  0.268131	  0.139497	  0.248235	
11.1434	  0.263243	  0.136082	  0.240321	
11.1767	  0.258613	  0.134871	  0.234472	
11.21	  0.253110	  0.135167	  0.230925	
11.2432	  0.245871	  0.135925	  0.229292	
11.2765	  0.237125	  0.136103	  0.229723	
11.3098	  0.227382	  0.134995	  0.233876	
11.343	  0.216061	  0.132368	  0.244473	
11.3763	  0.201574	  0.128404	  0.263543	
11.4096	  0.183094	  0.123517	  0.290680	
11.4428	  0.162146	  0.118205	  0.322625	
